<?xml version="1.0" encoding="utf-8"?>
<!-- Generator: Adobe Illustrator 17.0.0, SVG Export Plug-In . SVG Version: 6.00 Build 0)  -->
<!DOCTYPE svg PUBLIC "-//W3C//DTD SVG 1.1//EN" "http://www.w3.org/Graphics/SVG/1.1/DTD/svg11.dtd">
<svg version="1.1" id="Layer_1" xmlns="http://www.w3.org/2000/svg" xmlns:xlink="http://www.w3.org/1999/xlink" x="0px" y="0px"
	 width="24px" height="24px" viewBox="0 0 24 24" enable-background="new 0 0 24 24" xml:space="preserve">
<path d="M8.275,11.575c-0.828,0-1.5,0.672-1.5,1.5c0,0.828,0.672,1.5,1.5,1.5c0.828,0,1.5-0.672,1.5-1.5
	C9.775,12.247,9.103,11.575,8.275,11.575z M15.475,11.575c-0.828,0-1.5,0.672-1.5,1.5c0,0.828,0.672,1.5,1.5,1.5
	c0.828,0,1.5-0.672,1.5-1.5C16.975,12.247,16.303,11.575,15.475,11.575z M11.875-0.125c-6.624,0-12,5.376-12,12s5.376,12,12,12
	s12-5.376,12-12S18.499-0.125,11.875-0.125z M11.875,21.475c-5.292,0-9.6-4.308-9.6-9.6c0-0.348,0.024-0.696,0.06-1.032
	c2.832-1.26,5.076-3.576,6.252-6.444c2.172,3.072,5.748,5.076,9.792,5.076c0.936,0,1.836-0.108,2.7-0.312
	c0.252,0.852,0.396,1.764,0.396,2.712C21.475,17.167,17.167,21.475,11.875,21.475z"/>
</svg>
