<?xml version="1.0" encoding="utf-8"?>
<!-- Generator: Adobe Illustrator 17.0.0, SVG Export Plug-In . SVG Version: 6.00 Build 0)  -->
<!DOCTYPE svg PUBLIC "-//W3C//DTD SVG 1.1//EN" "http://www.w3.org/Graphics/SVG/1.1/DTD/svg11.dtd">
<svg version="1.1" id="Layer_1" xmlns="http://www.w3.org/2000/svg" xmlns:xlink="http://www.w3.org/1999/xlink" x="0px" y="0px"
	 width="18px" height="18px" viewBox="0 0 18 18" enable-background="new 0 0 18 18" xml:space="preserve">
<path d="M8.958-0.083c-4.996,0-9.042,4.046-9.042,9.042S3.963,18,8.958,18S18,13.954,18,8.958S13.954-0.083,8.958-0.083z
	 M8.958,3.025c1.401,0,2.543,1.142,2.543,2.543S10.36,8.111,8.958,8.111S6.415,6.969,6.415,5.568S7.557,3.025,8.958,3.025z
	 M8.958,15.174c-2.102,0-3.944-1.04-5.075-2.633c0.124-1.639,3.413-2.453,5.075-2.453s4.95,0.814,5.075,2.453
	C12.903,14.135,11.061,15.174,8.958,15.174z"/>
</svg>
