<?xml version="1.0" encoding="utf-8"?>
<!-- Generator: Adobe Illustrator 17.0.0, SVG Export Plug-In . SVG Version: 6.00 Build 0)  -->
<!DOCTYPE svg PUBLIC "-//W3C//DTD SVG 1.1//EN" "http://www.w3.org/Graphics/SVG/1.1/DTD/svg11.dtd">
<svg version="1.1" id="Layer_1" xmlns="http://www.w3.org/2000/svg" xmlns:xlink="http://www.w3.org/1999/xlink" x="0px" y="0px"
	 width="24px" height="24px" viewBox="0 0 24 24" enable-background="new 0 0 24 24" xml:space="preserve">
<path d="M23.054,11.463L12.442,0.851c-0.424-0.424-1.014-0.684-1.663-0.684H2.525c-1.297,0-2.358,1.061-2.358,2.358v8.254
	c0,0.649,0.259,1.238,0.696,1.674l10.613,10.613c0.424,0.424,1.014,0.684,1.663,0.684c0.649,0,1.238-0.259,1.663-0.696l8.254-8.254
	c0.436-0.424,0.696-1.014,0.696-1.663C23.75,12.489,23.479,11.888,23.054,11.463z M4.294,6.062c-0.979,0-1.769-0.79-1.769-1.769
	s0.79-1.769,1.769-1.769s1.769,0.79,1.769,1.769S5.272,6.062,4.294,6.062z M18.173,15.814l-5.035,5.035l-5.035-5.035
	c-0.531-0.542-0.861-1.274-0.861-2.087c0-1.627,1.321-2.948,2.948-2.948c0.814,0,1.556,0.33,2.087,0.873l0.861,0.849l0.861-0.861
	c0.531-0.531,1.274-0.861,2.087-0.861c1.627,0,2.948,1.321,2.948,2.948C19.033,14.541,18.703,15.284,18.173,15.814z"/>
</svg>
