<?xml version="1.0" encoding="utf-8"?>
<!-- Generator: Adobe Illustrator 17.0.0, SVG Export Plug-In . SVG Version: 6.00 Build 0)  -->
<!DOCTYPE svg PUBLIC "-//W3C//DTD SVG 1.1//EN" "http://www.w3.org/Graphics/SVG/1.1/DTD/svg11.dtd">
<svg version="1.1" id="Layer_1" xmlns="http://www.w3.org/2000/svg" xmlns:xlink="http://www.w3.org/1999/xlink" x="0px" y="0px"
	 width="26px" height="26px" viewBox="243 243 26 26" enable-background="new 243 243 26 26" xml:space="preserve">
<path d="M265.844,243.333c-1.784,0-3.24,1.412-3.24,3.151c0,1.176,0.672,2.191,1.658,2.733l-3.075,9.89
	c-0.066-0.005-0.133-0.019-0.202-0.019c-0.546,0-1.053,0.145-1.506,0.38l-3.622-3.857c0.171-0.385,0.269-0.806,0.269-1.249
	c0-1.739-1.452-3.151-3.24-3.151c-1.787,0-3.24,1.412-3.24,3.151c0,0.854,0.354,1.626,0.922,2.194l-3.428,5.771
	c-0.237-0.051-0.481-0.088-0.734-0.088c-1.787,0-3.24,1.415-3.24,3.151s1.452,3.151,3.24,3.151s3.24-1.415,3.24-3.151
	c0-0.923-0.418-1.748-1.072-2.326l3.385-5.699c0.294,0.086,0.604,0.148,0.927,0.148c0.736,0,1.406-0.249,1.95-0.652l3.437,3.663
	c-0.332,0.495-0.528,1.082-0.528,1.716c0,1.736,1.454,3.151,3.24,3.151c1.784,0,3.24-1.415,3.24-3.151
	c0-1.114-0.598-2.086-1.496-2.646l3.094-9.961c0.008,0,0.013,0.003,0.022,0.003c1.784,0,3.24-1.412,3.24-3.151
	S267.628,243.333,265.844,243.333z M246.406,266.966c-0.895,0-1.62-0.703-1.62-1.576s0.724-1.576,1.62-1.576s1.62,0.703,1.62,1.576
	S247.302,266.966,246.406,266.966z M252.885,255.938c-0.895,0-1.62-0.705-1.62-1.576c0-0.871,0.724-1.576,1.62-1.576
	s1.62,0.705,1.62,1.576C254.505,255.233,253.781,255.938,252.885,255.938z M260.984,263.815c-0.897,0-1.62-0.703-1.62-1.576
	s0.723-1.576,1.62-1.576s1.62,0.703,1.62,1.576S261.881,263.815,260.984,263.815z M265.844,248.06c-0.897,0-1.62-0.705-1.62-1.576
	s0.723-1.576,1.62-1.576s1.62,0.705,1.62,1.576S266.741,248.06,265.844,248.06z"/>
</svg>
