<?xml version="1.0" encoding="utf-8"?>
<!-- Generator: Adobe Illustrator 17.0.0, SVG Export Plug-In . SVG Version: 6.00 Build 0)  -->
<!DOCTYPE svg PUBLIC "-//W3C//DTD SVG 1.1//EN" "http://www.w3.org/Graphics/SVG/1.1/DTD/svg11.dtd">
<svg version="1.1" id="Layer_1" xmlns="http://www.w3.org/2000/svg" xmlns:xlink="http://www.w3.org/1999/xlink" x="0px" y="0px"
	 width="24px" height="24px" viewBox="0 0 24 24" enable-background="new 0 0 24 24" xml:space="preserve">
<path d="M22.222,6.648H18.58c-0.583-1.011-1.387-1.88-2.359-2.541l2.113-2.113l-1.828-1.828L13.693,2.98
	c-0.596-0.143-1.206-0.22-1.841-0.22c-0.635,0-1.244,0.078-1.828,0.22L7.198,0.167L5.37,1.994l2.1,2.113
	c-0.959,0.661-1.763,1.53-2.346,2.541H1.481v2.593h2.709c-0.065,0.428-0.117,0.856-0.117,1.296v1.296H1.481v2.593h2.593v1.296
	c0,0.441,0.052,0.869,0.117,1.296H1.481v2.593h3.643c1.348,2.32,3.85,3.889,6.728,3.889s5.38-1.569,6.728-3.889h3.643v-2.593h-2.709
	c0.065-0.428,0.117-0.856,0.117-1.296v-1.296h2.593v-2.593H19.63v-1.296c0-0.441-0.052-0.869-0.117-1.296h2.709V6.648z
	 M14.444,17.019H9.259v-2.593h5.185V17.019z M14.444,11.833H9.259V9.241h5.185V11.833z"/>
</svg>
